<svg width="1200" height="630" viewBox="0 0 1200 630" fill="none" xmlns="http://www.w3.org/2000/svg">
  <rect width="1200" height="630" fill="#050505"/>
  <rect x="42" y="42" width="1116" height="546" rx="34" fill="#09090B" stroke="#18181B"/>
  <circle cx="944" cy="128" r="260" fill="#5B21B6" fill-opacity="0.2"/>
  <circle cx="228" cy="554" r="220" fill="#7C3AED" fill-opacity="0.12"/>
  <path d="M96 168H1104" stroke="white" stroke-opacity="0.045"/>
  <path d="M96 272H1104" stroke="white" stroke-opacity="0.045"/>
  <path d="M96 376H1104" stroke="white" stroke-opacity="0.045"/>
  <path d="M96 480H1104" stroke="white" stroke-opacity="0.045"/>
  <rect x="750" y="96" width="310" height="420" rx="28" fill="#050505" stroke="#27272A"/>
  <path d="M790 152H1020" stroke="#7C3AED" stroke-opacity="0.55"/>
  <path d="M790 208H1020" stroke="white" stroke-opacity="0.08"/>
  <path d="M790 264H1020" stroke="white" stroke-opacity="0.08"/>
  <path d="M790 320H1020" stroke="white" stroke-opacity="0.08"/>
  <circle cx="986" cy="438" r="34" fill="#7C3AED" fill-opacity="0.2" stroke="#7C3AED" stroke-opacity="0.6"/>
  <rect x="96" y="96" width="92" height="92" rx="24" fill="#111113" stroke="#7C3AED" stroke-opacity="0.72"/>
  <text x="126" y="156" fill="white" font-family="Arial, Helvetica, sans-serif" font-size="42" font-weight="800" letter-spacing="-4">LP</text>
  <text x="96" y="294" fill="#7C3AED" font-family="Arial, Helvetica, sans-serif" font-size="20" font-weight="700" letter-spacing="8">THE LOAN PLAYBOOK</text>
  <text x="96" y="378" fill="white" font-family="Arial, Helvetica, sans-serif" font-size="74" font-weight="800" letter-spacing="-5">Know the move</text>
  <text x="96" y="452" fill="#A1A1AA" font-family="Arial, Helvetica, sans-serif" font-size="54" font-weight="700" letter-spacing="-3">before you make it.</text>
  <text x="96" y="532" fill="#71717A" font-family="Arial, Helvetica, sans-serif" font-size="24" font-weight="500">Mortgage education packaged like premium media.</text>
</svg>
